<svg width="258" height="120" viewBox="0 0 258 120" fill="none" xmlns="http://www.w3.org/2000/svg">
<g clip-path="url(#clip0_47_106)">
<rect width="258" height="120" fill="white"/>
<g clip-path="url(#clip1_47_106)">
<rect width="249" height="114" fill="url(#paint0_linear_47_106)"/>
<line x1="4" y1="111" x2="3.99999" y2="4.63954e-08" stroke="#A51C30" stroke-width="2"/>
<line x1="38" y1="111" x2="38" y2="4.37114e-08" stroke="#A51C30" stroke-width="2"/>
<line x1="249" y1="71" y2="71" stroke="#A51C30" stroke-width="2"/>
<line x1="249" y1="104" x2="-0.00015303" y2="103.947" stroke="#A51C30" stroke-width="2"/>
<line x1="41" y1="112" x2="35" y2="112" stroke="#A51C30" stroke-width="2"/>
<line x1="7" y1="112" x2="1" y2="112" stroke="#A51C30" stroke-width="2"/>
<line x1="42" y1="38" x2="-9.99968e-08" y2="38" stroke="#A51C30" stroke-width="2"/>
<line x1="42" y1="5" x2="-9.99968e-08" y2="5" stroke="#A51C30" stroke-width="2"/>
<line x1="38.6626" y1="103.369" x2="3.66262" y2="71.369" stroke="#A51C30"/>
<line x1="38.6626" y1="69.369" x2="3.66262" y2="37.369" stroke="#A51C30"/>
<line x1="38.6626" y1="36.369" x2="3.66262" y2="4.36901" stroke="#A51C30"/>
<line x1="72.6626" y1="102.369" x2="37.6626" y2="70.369" stroke="#A51C30"/>
<line x1="38.3482" y1="71.3588" x2="4.34824" y2="104.359" stroke="#A51C30"/>
<line x1="38.3482" y1="37.3588" x2="4.34824" y2="70.3588" stroke="#A51C30"/>
<line x1="39.3482" y1="4.35879" x2="5.34824" y2="37.3588" stroke="#A51C30"/>
<line x1="73.3482" y1="70.3588" x2="39.3482" y2="103.359" stroke="#A51C30"/>
<line x1="76" y1="112" x2="70" y2="112" stroke="#A51C30" stroke-width="2"/>
<line x1="111" y1="112" x2="105" y2="112" stroke="#A51C30" stroke-width="2"/>
<line x1="145" y1="113" x2="139" y2="113" stroke="#A51C30" stroke-width="2"/>
<line x1="179" y1="112" x2="173" y2="112" stroke="#A51C30" stroke-width="2"/>
<line x1="214" y1="112" x2="208" y2="112" stroke="#A51C30" stroke-width="2"/>
<line x1="248" y1="112" x2="242" y2="112" stroke="#A51C30" stroke-width="2"/>
<line x1="73" y1="66" x2="73" y2="111" stroke="#A51C30" stroke-width="2"/>
<line x1="108" y1="66" x2="108" y2="111" stroke="#A51C30" stroke-width="2"/>
<line x1="142" y1="67" x2="142" y2="112" stroke="#A51C30" stroke-width="2"/>
<line x1="176" y1="66" x2="176" y2="111" stroke="#A51C30" stroke-width="2"/>
<line x1="211" y1="66" x2="211" y2="111" stroke="#A51C30" stroke-width="2"/>
<line x1="245" y1="66" x2="245" y2="111" stroke="#A51C30" stroke-width="2"/>
<line x1="107.663" y1="102.369" x2="72.6626" y2="70.369" stroke="#A51C30"/>
<line x1="141.663" y1="103.369" x2="106.663" y2="71.369" stroke="#A51C30"/>
<line x1="175.663" y1="102.369" x2="140.663" y2="70.369" stroke="#A51C30"/>
<line x1="210.663" y1="102.369" x2="175.663" y2="70.369" stroke="#A51C30"/>
<line x1="244.663" y1="102.369" x2="209.663" y2="70.369" stroke="#A51C30"/>
<line x1="108.348" y1="70.3588" x2="74.3482" y2="103.359" stroke="#A51C30"/>
<line x1="142.348" y1="71.3588" x2="108.348" y2="104.359" stroke="#A51C30"/>
<line x1="176.348" y1="70.3588" x2="142.348" y2="103.359" stroke="#A51C30"/>
<line x1="210.348" y1="70.3588" x2="176.348" y2="103.359" stroke="#A51C30"/>
<line x1="245.348" y1="70.3588" x2="211.348" y2="103.359" stroke="#A51C30"/>
<rect width="258" height="120" fill="url(#paint1_linear_47_106)"/>
</g>
<path d="M46.4 61V60L51.05 58.5V28.5L46.4 27V26H60.4V27L55.75 28.5V58.5L60.4 60V61H46.4ZM61.7949 61V60L67.3449 58.25L66.4949 59.4V38.45L67.3949 39.45L61.2949 38.75V37.95L70.5949 35.2L71.0949 35.5L70.9949 40.35L70.5449 39.85C71.3449 39.0833 72.2283 38.35 73.1949 37.65C74.1616 36.95 75.1449 36.3833 76.1449 35.95C77.1783 35.4833 78.1449 35.25 79.0449 35.25C80.6783 35.25 82.1116 35.5667 83.3449 36.2C84.5783 36.8333 85.5449 37.7167 86.2449 38.85C86.9449 39.95 87.2949 41.2333 87.2949 42.7V59.4L86.4449 58.2L91.8449 60V61H79.0949V60L83.6449 58.15L82.7949 59.4V44.1C82.7949 42.1667 82.2949 40.6333 81.2949 39.5C80.3283 38.3667 79.0616 37.8 77.4949 37.8C76.7949 37.8 76.0283 38.0333 75.1949 38.5C74.3616 38.9333 73.5449 39.5 72.7449 40.2C71.9449 40.8667 71.2116 41.5667 70.5449 42.3L70.9949 40.95V59.4L70.1449 58.15L74.7949 60V61H61.7949ZM105.788 61.65C103.621 61.65 101.705 61.1167 100.038 60.05C98.3712 58.9833 97.0546 57.5167 96.0879 55.65C95.1546 53.7833 94.6879 51.65 94.6879 49.25C94.6879 46.5167 95.1712 44.1 96.1379 42C97.1379 39.8667 98.5046 38.2 100.238 37C101.971 35.7667 103.955 35.15 106.188 35.15C108.121 35.15 109.788 35.6167 111.188 36.55C112.621 37.45 113.721 38.7167 114.488 40.35C115.288 41.95 115.688 43.8167 115.688 45.95C115.688 46.1833 115.688 46.4167 115.688 46.65C115.688 46.8833 115.671 47.1333 115.638 47.4H98.5379L99.4379 46.6C99.3712 48.9333 99.6546 51.0167 100.288 52.85C100.921 54.65 101.838 56.0667 103.038 57.1C104.271 58.1333 105.688 58.65 107.288 58.65C108.355 58.65 109.538 58.3667 110.838 57.8C112.138 57.2333 113.255 56.5 114.188 55.6L115.288 57C114.655 57.9 113.821 58.7 112.788 59.4C111.755 60.1 110.638 60.65 109.438 61.05C108.238 61.45 107.021 61.65 105.788 61.65ZM99.3379 46.45L98.4379 45.65L111.038 45.3L110.838 46.15C110.805 44.3167 110.505 42.7333 109.938 41.4C109.405 40.0333 108.671 38.9833 107.738 38.25C106.838 37.4833 105.788 37.1 104.588 37.1C103.521 37.1 102.571 37.4833 101.738 38.25C100.938 39.0167 100.321 40.1 99.8879 41.5C99.4546 42.9 99.2712 44.55 99.3379 46.45ZM119.371 61V60L124.771 58.2L123.921 59.4V37L124.821 37.9H118.521V35.9H124.821L123.921 36.8V32.7C123.921 30.2667 124.305 28.1333 125.071 26.3C125.871 24.4333 127.005 22.9667 128.471 21.9C129.971 20.8333 131.771 20.3 133.871 20.3C134.938 20.3 136.021 20.3667 137.121 20.5C138.221 20.6 139.038 20.7333 139.571 20.9L138.521 26.9H137.221C136.655 25.4333 135.905 24.2 134.971 23.2C134.038 22.1667 133.188 21.65 132.421 21.65C131.055 21.65 130.038 22.5333 129.371 24.3C128.738 26.0667 128.421 28.3333 128.421 31.1V36.8L127.521 35.9H134.521V37.9H127.521L128.421 37V59.4L127.571 58.2L133.121 60.05V61H119.371ZM134.948 61V60L140.348 58.2L139.498 59.4V37L140.398 37.9H134.098V35.9H140.398L139.498 36.8V32.7C139.498 30.2667 139.881 28.1333 140.648 26.3C141.448 24.4333 142.581 22.9667 144.048 21.9C145.548 20.8333 147.348 20.3 149.448 20.3C150.514 20.3 151.598 20.3667 152.698 20.5C153.798 20.6 154.614 20.7333 155.148 20.9L154.098 26.9H152.798C152.231 25.4333 151.481 24.2 150.548 23.2C149.614 22.1667 148.764 21.65 147.998 21.65C146.631 21.65 145.614 22.5333 144.948 24.3C144.314 26.0667 143.998 28.3333 143.998 31.1V36.8L143.098 35.9H150.098V37.9H143.098L143.998 37V59.4L143.148 58.2L148.698 60.05V61H134.948ZM160.902 61.8C159.369 61.8 158.119 61.4167 157.152 60.65C156.219 59.85 155.536 58.8333 155.102 57.6C154.702 56.3667 154.502 55.05 154.502 53.65C154.502 52.4833 154.852 51.4667 155.552 50.6C156.286 49.7333 157.286 49.0167 158.552 48.45C159.852 47.85 161.352 47.4167 163.052 47.15C164.752 46.85 166.569 46.6833 168.502 46.65L167.702 47.55V42.45C167.702 40.7833 167.369 39.4333 166.702 38.4C166.036 37.3667 165.236 36.85 164.302 36.85C163.336 36.85 162.502 37.05 161.802 37.45C161.102 37.8167 160.552 38.35 160.152 39.05C159.786 39.75 159.552 40.55 159.452 41.45C159.419 41.75 159.386 42.05 159.352 42.35C159.352 42.6167 159.352 42.9 159.352 43.2L155.202 44.2C155.169 43.9 155.152 43.6167 155.152 43.35C155.152 43.05 155.152 42.75 155.152 42.45C155.152 41.0167 155.552 39.7667 156.352 38.7C157.186 37.6 158.369 36.75 159.902 36.15C161.469 35.5167 163.336 35.2 165.502 35.2C166.769 35.2 167.886 35.4667 168.852 36C169.852 36.5333 170.619 37.2667 171.152 38.2C171.719 39.1333 172.002 40.2167 172.002 41.45V59.55L171.102 58.55L176.002 59.3V60.1L168.302 61.85L167.802 61.55L167.652 57.5L168.202 57.95C167.069 59.0833 165.902 60.0167 164.702 60.75C163.502 61.45 162.236 61.8 160.902 61.8ZM162.602 59.3C163.569 59.3 164.486 58.9 165.352 58.1C166.252 57.3 167.202 56.3333 168.202 55.2L167.702 56.65V47.65L168.752 48.55C165.519 48.5833 163.069 48.8833 161.402 49.45C159.736 49.9833 158.902 50.8833 158.902 52.15C158.902 53.3833 159.069 54.55 159.402 55.65C159.769 56.75 160.236 57.6333 160.802 58.3C161.369 58.9667 161.969 59.3 162.602 59.3ZM189.768 61.8C189.201 61.8 188.551 61.7 187.818 61.5C187.118 61.3 186.301 60.9833 185.368 60.55C184.468 60.1167 183.418 59.5333 182.218 58.8V24.25L183.118 25.25L177.018 24.55V23.75L186.318 21L186.818 21.3L186.718 25.1V38.6L186.218 38.1C187.318 37.2333 188.501 36.5333 189.768 36C191.034 35.4667 192.201 35.2 193.268 35.2C194.801 35.2 196.218 35.4833 197.518 36.05C198.818 36.6167 199.934 37.4167 200.868 38.45C201.834 39.4833 202.568 40.7 203.068 42.1C203.601 43.5 203.868 45.0333 203.868 46.7C203.868 48.9 203.518 50.9167 202.818 52.75C202.118 54.5833 201.134 56.1833 199.868 57.55C198.634 58.8833 197.151 59.9333 195.418 60.7C193.718 61.4333 191.834 61.8 189.768 61.8ZM191.818 59.8C193.284 59.8 194.568 59.2833 195.668 58.25C196.801 57.2167 197.684 55.8167 198.318 54.05C198.951 52.2833 199.268 50.3 199.268 48.1C199.268 46.0333 198.918 44.2 198.218 42.6C197.551 41 196.601 39.75 195.368 38.85C194.168 37.95 192.784 37.5 191.218 37.5C190.518 37.5 189.718 37.8 188.818 38.4C187.918 38.9667 187.034 39.6667 186.168 40.5L186.718 39.1V58.05L186.218 56.7C187.084 57.5 188.001 58.2167 188.968 58.85C189.968 59.4833 190.918 59.8 191.818 59.8ZM206.867 61V60L212.267 58.2L211.417 59.4V24.25L212.317 25.25L206.217 24.55V23.75L215.517 21L216.017 21.3L215.867 25.1V59.4L215.067 58.2L220.617 60.05V61H206.867ZM234.548 61.65C232.381 61.65 230.464 61.1167 228.798 60.05C227.131 58.9833 225.814 57.5167 224.848 55.65C223.914 53.7833 223.448 51.65 223.448 49.25C223.448 46.5167 223.931 44.1 224.898 42C225.898 39.8667 227.264 38.2 228.998 37C230.731 35.7667 232.714 35.15 234.948 35.15C236.881 35.15 238.548 35.6167 239.948 36.55C241.381 37.45 242.481 38.7167 243.248 40.35C244.048 41.95 244.448 43.8167 244.448 45.95C244.448 46.1833 244.448 46.4167 244.448 46.65C244.448 46.8833 244.431 47.1333 244.398 47.4H227.298L228.198 46.6C228.131 48.9333 228.414 51.0167 229.048 52.85C229.681 54.65 230.598 56.0667 231.798 57.1C233.031 58.1333 234.448 58.65 236.048 58.65C237.114 58.65 238.298 58.3667 239.598 57.8C240.898 57.2333 242.014 56.5 242.948 55.6L244.048 57C243.414 57.9 242.581 58.7 241.548 59.4C240.514 60.1 239.398 60.65 238.198 61.05C236.998 61.45 235.781 61.65 234.548 61.65ZM228.098 46.45L227.198 45.65L239.798 45.3L239.598 46.15C239.564 44.3167 239.264 42.7333 238.698 41.4C238.164 40.0333 237.431 38.9833 236.498 38.25C235.598 37.4833 234.548 37.1 233.348 37.1C232.281 37.1 231.331 37.4833 230.498 38.25C229.698 39.0167 229.081 40.1 228.648 41.5C228.214 42.9 228.031 44.55 228.098 46.45Z" fill="#27070B"/>
</g>
<defs>
<linearGradient id="paint0_linear_47_106" x1="0" y1="57" x2="249" y2="57" gradientUnits="userSpaceOnUse">
<stop stop-color="white" stop-opacity="0"/>
<stop offset="1" stop-color="white"/>
</linearGradient>
<linearGradient id="paint1_linear_47_106" x1="0" y1="60" x2="258" y2="60" gradientUnits="userSpaceOnUse">
<stop stop-color="white" stop-opacity="0"/>
<stop offset="0.365385" stop-color="white" stop-opacity="0.8"/>
<stop offset="1" stop-color="white" stop-opacity="0.95"/>
</linearGradient>
<clipPath id="clip0_47_106">
<rect width="258" height="120" fill="white"/>
</clipPath>
<clipPath id="clip1_47_106">
<rect width="258" height="120" fill="white"/>
</clipPath>
</defs>
</svg>
